PathFileType	4	(X/Y/Z)	Kaydara	
DataRate	CameraRate	NumFrames	NumMarkers	Units	OrigDataRate	OrigDataStartFrame	OrigNumFrames	
60.00	60.00	4	74	mm	60.00	1028	111	
Frame#	Time	Y_rasi			Y_rpsi			Y_lpsi			Y_fneck			Y_bneck			Y_fhead			Y_rhead			Y_rshld			Y_relbtop			Y_relbext			Y_relblow			Y_rwrext			Y_rwrtop			Y_rwrlow			Y_lshld			Y_lelbext			Y_lelblow			Y_lelbtop			Y_lwrext			Y_lwrtop			Y_lwrlow			Y_rtopleg			Y_ltopleg			Y_rkneefr			Y_rkneebk			Y_rkneeis			Y_lkneefr			Y_lknssbk			Y_lkneeis			Y_rankfr			Y_rankis			Y_rankbk			Y_lankfr			Y_lankbk			Y_lankis			Y_lhead			Y_lasi			D_rpsi			D_lpsi			D_fneck			D_bneck			D_fhead			D_rhead			D_lhead			D_rshld			D_relbtop			D_relbext			D_relblow			D_rwrext			D_rwrtop			D_rwrlow			D_lshld			D_lelbext			D_lelblow			D_lelbtop			D_lwrext			D_lwrtop			D_lwrlow			D_rtopleg			D_ltopleg			D_rkneefr			D_rkneebk			D_rkneeis			D_lkneefr			D_lknssbk			D_lkneeis			D_rankfr			D_rankis			D_rankbk			D_lankfr			D_lankbk			D_lankis			D_lasi			D_rasi			
		X1	Y1	Z1	X2	Y2	Z2	X3	Y3	Z3	X4	Y4	Z4	X5	Y5	Z5	X6	Y6	Z6	X7	Y7	Z7	X8	Y8	Z8	X9	Y9	Z9	X10	Y10	Z10	X11	Y11	Z11	X12	Y12	Z12	X13	Y13	Z13	X14	Y14	Z14	X15	Y15	Z15	X16	Y16	Z16	X17	Y17	Z17	X18	Y18	Z18	X19	Y19	Z19	X20	Y20	Z20	X21	Y21	Z21	X22	Y22	Z22	X23	Y23	Z23	X24	Y24	Z24	X25	Y25	Z25	X26	Y26	Z26	X27	Y27	Z27	X28	Y28	Z28	X29	Y29	Z29	X30	Y30	Z30	X31	Y31	Z31	X32	Y32	Z32	X33	Y33	Z33	X34	Y34	Z34	X35	Y35	Z35	X36	Y36	Z36	X37	Y37	Z37	X38	Y38	Z38	X39	Y39	Z39	X40	Y40	Z40	X41	Y41	Z41	X42	Y42	Z42	X43	Y43	Z43	X44	Y44	Z44	X45	Y45	Z45	X46	Y46	Z46	X47	Y47	Z47	X48	Y48	Z48	X49	Y49	Z49	X50	Y50	Z50	X51	Y51	Z51	X52	Y52	Z52	X53	Y53	Z53	X54	Y54	Z54	X55	Y55	Z55	X56	Y56	Z56	X57	Y57	Z57	X58	Y58	Z58	X59	Y59	Z59	X60	Y60	Z60	X61	Y61	Z61	X62	Y62	Z62	X63	Y63	Z63	X64	Y64	Z64	X65	Y65	Z65	X66	Y66	Z66	X67	Y67	Z67	X68	Y68	Z68	X69	Y69	Z69	X70	Y70	Z70	X71	Y71	Z71	X72	Y72	Z72	X73	Y73	Z73	X74	Y74	Z74	

28	17.117	-537.40612	1092.18849	-150.59835	-536.66176	1073.99574	-334.52980	-307.38712	1058.45276	-270.33005	-442.12749	1428.66364	-167.82366	-360.11772	1480.43549	-247.44780	-490.49339	1633.97186	-107.35911	-461.97350	1566.69388	-271.34975	-583.40679	1428.89191	-294.98402	-616.82293	1119.77417	-353.31787	-632.73701	1140.19852	-407.24228	-566.79688	1122.31613	-421.36765	-650.75226	866.85638	-331.57627	-675.34805	882.31628	-300.39532	-645.44182	896.29189	-269.63995	-219.53695	1378.44025	-121.76372	-152.50033	1070.51697	-199.49440	-204.10435	1062.44919	-227.85330	-199.42009	1078.76053	-156.13901	-243.03621	836.13503	-113.82684	-240.84383	849.02481	-71.98031	-283.18821	870.89867	-71.04358	-612.64977	917.74689	-289.40998	-271.51413	906.46896	-159.95863	-638.54362	411.73042	-274.41458	-616.40747	454.60850	-349.93603	-542.64484	417.39861	-264.76812	-327.17072	477.14485	-125.86373	-262.61261	493.36899	-219.34696	-383.34824	470.04772	-203.25821	-631.82384	141.72854	-328.83930	-560.44029	133.75720	-342.22935	-601.61621	137.24101	-396.05324	-273.78321	131.43572	-171.49952	-256.06632	128.15097	-239.66612	-329.87099	126.41662	-210.03025	-339.25724	1569.05136	-180.73902	-382.07569	1074.11217	-104.92215	-859.72336	1165.76881	620.50678	-1016.54823	1186.19408	539.99531	-865.68024	1604.34982	490.43472	-922.41463	1652.80426	588.86513	-930.07401	1786.25626	368.02048	-839.01657	1802.23434	521.11053	-991.21864	1784.00864	532.25159	-734.72763	1573.46359	603.37074	-706.99448	1199.74228	584.09149	-646.22986	1215.76294	612.15965	-702.77740	1203.41110	669.25613	-619.65271	918.37166	591.54552	-606.84895	926.23169	552.29530	-647.37755	929.38530	525.84900	-1078.91441	1603.13370	473.04302	-1111.44730	1230.73929	411.22379	-1067.19261	1209.46533	472.15340	-1052.38876	1238.05222	391.22482	-1065.12070	983.16650	359.05014	-1064.95445	1001.33560	316.69672	-1018.04535	1008.10074	316.37339	-753.73154	1026.55685	591.77174	-1060.49416	1032.35184	417.43118	-795.50407	549.38099	496.68861	-792.51801	555.06786	608.90228	-902.83203	548.67817	546.06953	-969.80942	467.29202	342.42496	-1050.77065	516.44825	403.66997	-961.66985	494.63158	457.41238	-822.98859	187.77523	554.93145	-899.86420	187.80485	543.86768	-869.42062	179.94801	623.65948	-1046.59630	164.56039	408.82740	-1063.19641	163.82364	486.21769	-981.57791	162.52756	439.15321	-955.39330	1193.86513	393.69560	-767.86354	1179.10316	475.50320 
29	17.133	-537.37896	1092.44255	-150.69494	-536.46015	1073.97110	-334.54601	-307.26242	1058.45299	-270.01926	-442.23930	1428.75198	-167.89877	-360.51369	1480.50232	-247.27116	-490.93479	1634.02924	-107.47357	-462.06867	1566.52328	-271.32120	-583.99368	1428.92746	-294.50197	-616.08688	1120.06203	-354.28581	-632.43542	1140.54985	-408.28621	-566.38256	1123.04489	-422.69024	-650.62828	868.03108	-331.64104	-675.40993	883.50655	-300.50613	-645.38132	897.53571	-269.93305	-219.84522	1378.99643	-121.28775	-151.63082	1071.38748	-199.19468	-202.72501	1063.55415	-228.54603	-200.32700	1079.22997	-156.60386	-245.05465	837.69249	-114.99766	-244.89508	850.36766	-73.10835	-287.29515	872.99332	-74.35740	-612.43088	917.83157	-289.30326	-271.94784	906.36902	-159.20777	-638.59772	411.69640	-274.03364	-616.39534	454.62685	-349.54182	-542.82330	417.28813	-264.36514	-327.19036	477.10255	-125.70717	-262.58619	493.46100	-219.19327	-383.34229	470.04772	-203.12187	-631.72306	141.69919	-328.74157	-560.43854	133.74994	-342.10621	-601.55354	137.28260	-395.92300	-273.80522	131.42234	-171.49996	-256.07283	128.16971	-239.63581	-329.89708	126.40028	-210.01928	-339.91138	1568.92059	-179.90385	-382.23259	1074.36157	-104.67217	-861.31691	1165.30220	619.57378	-1018.16185	1185.33997	538.80112	-868.16490	1604.44962	489.53247	-924.75327	1653.19687	589.08802	-929.54636	1786.09955	366.78970	-842.32674	1802.22473	522.10155	-994.53026	1783.18787	529.67388	-738.66287	1579.91165	600.28538	-710.71198	1206.99936	582.05177	-649.90387	1223.10547	610.73772	-707.15714	1211.45950	667.10274	-623.32302	924.39552	596.39870	-607.90104	932.53777	557.91977	-646.54480	935.94490	528.91232	-1077.17819	1610.76904	472.62245	-1111.83662	1238.80539	412.95238	-1065.37506	1218.15865	471.82564	-1053.72681	1246.25816	390.43129	-1066.10435	991.21040	360.56072	-1070.43480	1008.48152	318.07856	-1023.99811	1016.57898	311.72096	-754.67827	1026.50635	589.97952	-1061.75636	1031.63361	416.00372	-797.16164	549.39865	496.78249	-793.56064	555.52227	609.10564	-904.25247	548.87897	546.69224	-969.80545	466.77475	340.55527	-1050.96977	515.74219	401.69395	-961.74858	494.17511	455.42206	-823.31749	188.07219	555.07141	-900.25970	187.88147	544.19743	-869.61037	180.30529	623.50086	-1046.42632	164.24898	408.05798	-1063.20419	163.90480	485.48290	-981.44936	162.42235	438.51654	-957.40410	1193.59299	393.29376	-769.58168	1179.22928	474.54231 
30	17.150	-537.65621	1092.69844	-150.59708	-536.18557	1073.98796	-334.43268	-307.03285	1058.43880	-269.65879	-442.47650	1428.72009	-167.95712	-360.84301	1480.52292	-247.21727	-491.64925	1634.21722	-107.77660	-462.13120	1566.38565	-271.42147	-584.41750	1429.00818	-294.31927	-615.91347	1120.37170	-354.81468	-632.14199	1140.89417	-408.95962	-566.02699	1123.40218	-423.40057	-651.78505	869.04335	-331.77437	-676.53542	884.56268	-300.59885	-646.71593	898.65540	-269.83559	-220.40760	1379.45267	-120.77804	-150.97306	1072.17072	-198.32739	-201.15591	1064.49577	-229.08939	-200.70736	1079.99702	-156.76877	-247.35601	838.89442	-116.98072	-249.79527	850.96855	-74.50067	-291.31247	874.07463	-78.50827	-612.32655	917.93625	-289.27872	-271.94504	906.32591	-158.64265	-638.60203	411.64635	-273.74329	-616.36589	454.63810	-349.26121	-542.72854	417.27020	-264.09437	-327.16187	477.07287	-125.58264	-262.58022	493.52543	-218.92216	-383.31451	470.07629	-202.97716	-631.70731	141.67515	-328.66409	-560.75127	133.58238	-341.75915	-601.52199	137.30871	-395.79597	-273.78981	131.37161	-171.51583	-256.04889	128.17719	-239.59566	-329.91280	126.42956	-210.00181	-340.50468	1568.72299	-179.27973	-382.35897	1074.67773	-104.61378	-862.91908	1165.45692	618.42087	-1019.83673	1185.16602	537.79156	-870.06111	1605.15686	489.17244	-927.29263	1653.93860	589.17713	-927.38251	1785.83832	365.40287	-846.97433	1802.96387	523.82233	-998.76572	1782.80380	525.75470	-742.89673	1586.01974	598.15475	-713.83003	1214.61151	579.31774	-653.50426	1230.48859	609.26964	-711.72653	1219.59831	664.52347	-627.24998	930.17021	602.63786	-608.80890	938.65685	564.28570	-644.86183	942.38106	531.97659	-1075.94383	1617.35779	472.72602	-1112.84988	1246.22101	414.22020	-1064.91585	1225.66261	471.73607	-1055.42053	1253.56728	390.20531	-1065.76767	998.31551	359.96655	-1075.47577	1015.39986	318.61437	-1029.85649	1024.85725	307.52737	-755.95177	1026.67747	588.60542	-1063.30940	1031.27647	414.84886	-798.54134	549.70989	496.63162	-794.56474	556.04149	608.69957	-905.55099	549.18785	546.90094	-970.06599	466.86710	338.97274	-1051.38199	515.71529	400.09163	-962.14485	495.12302	454.16920	-823.61496	188.50182	555.11436	-900.59189	188.03955	544.36943	-869.83017	180.65538	623.56628	-1046.37466	164.40256	407.38297	-1063.17848	164.46774	484.71905	-981.41426	162.77029	437.81322	-959.48029	1194.26003	392.35844	-771.59187	1179.61693	473.24753 
31	17.167	-537.73365	1092.95998	-150.34335	-535.94402	1074.01901	-334.20860	-306.75674	1058.40599	-269.24252	-442.74940	1428.85605	-168.13185	-361.09676	1480.57739	-247.17045	-492.13463	1634.53659	-108.10094	-462.18987	1566.32477	-271.61463	-584.74464	1429.33105	-294.51950	-616.64783	1121.06995	-355.40794	-632.27440	1141.46034	-409.69402	-566.08940	1123.66661	-423.62064	-653.47672	869.93668	-331.58180	-678.11432	885.46074	-300.27685	-648.17276	899.52751	-269.72996	-220.94770	1380.01038	-120.28340	-150.27835	1072.75864	-197.37604	-199.67953	1065.44640	-229.51294	-201.62477	1080.45998	-156.84532	-249.62652	839.74167	-119.97763	-254.21146	851.21506	-77.18635	-295.13485	875.10452	-85.19120	-611.02257	917.32498	-289.95560	-272.28317	906.23596	-157.69529	-638.61492	411.63872	-273.68219	-616.24664	454.61128	-349.13750	-542.70844	417.26036	-263.85157	-327.21817	477.06573	-125.35902	-262.45270	493.58761	-218.66356	-383.25317	470.10033	-202.81244	-631.70399	141.69228	-328.62297	-560.67066	133.61647	-341.71936	-601.46515	137.32729	-395.70175	-273.78708	131.33705	-171.44665	-256.02245	128.22637	-239.56217	-329.86809	126.44323	-209.98119	-340.77328	1568.57193	-179.14316	-382.67273	1075.05699	-105.30283	-864.24156	1166.35086	617.08912	-1021.06339	1185.90904	536.52729	-871.60843	1605.91812	488.96175	-930.91766	1654.55948	588.23341	-923.48465	1786.10016	363.55671	-852.40158	1803.34808	526.52222	-1003.66135	1782.22549	520.59120	-746.56509	1591.50970	596.65081	-716.23047	1221.17081	576.42456	-656.65581	1237.06909	607.90844	-716.38908	1226.55373	661.66725	-631.63166	935.87646	607.03178	-610.03021	943.95981	570.70534	-642.66586	947.96646	535.07679	-1075.35477	1622.84439	472.89421	-1114.81590	1252.13585	414.53335	-1066.32706	1231.45958	471.11626	-1057.41470	1259.42467	389.91676	-1064.91966	1004.01207	357.41829	-1080.08301	1021.24580	317.71566	-1035.55641	1032.01500	303.13822	-757.38869	1027.35558	587.54963	-1065.06653	1031.47484	414.01192	-799.68163	550.04681	496.11473	-795.79727	556.27918	608.16780	-906.62979	549.37981	546.27983	-970.76248	467.36526	338.10760	-1052.13562	516.15124	399.21558	-962.48558	495.17662	452.88288	-823.89198	188.79505	555.04902	-900.82993	188.12817	544.25373	-870.07027	180.90324	623.50739	-1046.51001	164.78971	407.02492	-1063.18810	164.89788	484.22573	-981.45340	163.34784	437.27287	-961.57547	1195.60524	391.23100	-773.71895	1180.45853	471.67049 
